Patient4_TMGait_0pt7_01_right_50_EMG.mot
version=1
nRows=23
nColumns=33
inDegrees=no
endheader
time	1LAddLong	2LGlutMax	3LGlutMed	4LIliopsoas	5LSemiMemb	6LBicFemLong	7LRecFem	8LVastMed	9LVastLat	10LGasMed	11LTibAnt	12lTibPost	13LPeroneusLong	14LSol	15LExtDigLong	16LFlexDigLong	17RAddLong	18RGlutMax	19RGlutMed	20RIliopsoas	21RSemiMemb	22RBicFemLong	23RRecFem	24RVastMed	25RVastLat	26RGasMed	27RTibAnt	28RTibPost	29RPeroneusLong	30RSol	31RExtDigLong	32RFlexDigLong
58.758	0.00351	-0.046539	-0.035858	0.010376	0.023804	-0.024109	0.06897	0.003815	0.032196	-0.094604	-0.000458	-0.001373	-0.21027	0.060272	0.014038	0.006866	0.042267	-0.08255	0.22293	-0.051727	-0.063171	-0.083923	0.054169	-0.007019	-0.009155	-0.021667	-1.0139	-0.007172	0.16098	-0.047913	-0.007629	0.001678
58.759	0.005493	-0.069122	-0.017242	0.025787	0.021667	-0.046997	0.041351	0.001221	0.011292	-0.10071	-0.005951	0.003357	-0.10849	-0.10147	-0.051422	0.013428	0.088043	-0.103	0.084839	0.016022	-0.088501	-0.098114	0.070496	-0.022125	-0.006104	-0.020294	-1.0609	0.009003	0.15259	-0.027466	-0.008392	0.001678
58.76	0.00885	-0.1152	-0.057373	0.013123	0.027771	0.071411	0.045776	0.017395	-0.029144	0.16983	-0.052338	0.003357	-0.041962	-0.33234	-0.12848	0.006866	0.076599	-0.11078	0.033875	0.095367	-0.06546	-0.060425	0.069275	-0.056152	0.002899	-0.008392	-0.7402	-0.005798	0.11185	-0.041962	-0.006256	0.004272
58.761	-0.006256	-0.14023	-0.069427	0.018616	0.005493	0.1149	0.091248	0.016937	-0.0177	0.57205	-0.086517	-0.002899	0.066528	-0.34912	-0.13702	0.009155	0.050659	-0.16037	0.047607	0.098419	-0.048218	0.14664	0.14313	-0.011902	0.020142	-0.005798	-0.41779	-0.001068	0.068054	-0.033112	-0.007629	-0.002289
58.762	0.00351	-0.084381	-0.069427	0.010071	0.019989	-0.003967	0.13199	0.023346	0.094452	0.81497	-0.094757	0.005035	0.12024	-0.3154	-0.027008	0.008087	0.014496	-0.11505	0.28961	0.04776	-0.08606	0.21759	0.19989	-0.021057	-0.015259	-0.009155	-0.16174	-0.002747	0.054321	-0.013885	-0.002899	0.005646
58.763	0.005188	-0.084076	-0.11154	0.006409	0.006409	0.041504	0.034943	0.027618	0.11475	0.73105	-0.050049	0.005035	0.049133	-0.32822	0.061798	-0.011292	-0.003357	-0.10376	0.20218	0.002136	-0.10223	0.24689	0.21515	-0.03067	0.005646	-0.018158	-0.057831	-0.005035	-0.015564	-0.013885	-0.001984	0.005951
58.764	-0.023956	-0.056458	0.006104	-0.014343	-0.003967	0.10147	-0.022583	0.016174	0.20401	-0.242	0.027618	0.009918	0.27878	-0.28809	0.10941	0.005798	-0.05127	-0.070953	-0.15884	-0.03479	-0.032654	0.18265	0.13504	-0.029907	-0.011292	-0.014038	-0.034943	-0.003662	-0.045319	0.10956	-0.001526	0.005188
58.765	-0.043945	-0.020294	0.046539	-0.035858	0.003052	0.057373	-0.046997	-0.001373	0.38071	-0.39063	0.032501	0.007935	0.18906	-0.19486	0.10971	-0.001373	-0.069122	-0.10239	-0.43076	-0.041046	0.094604	0.046844	0.098572	-0.028381	0.007324	-0.01236	-0.014954	-0.006561	-0.013733	0.18707	-0.003662	0.002289
58.766	0.040741	-0.012817	0.040283	-0.00946	-0.001678	0.045929	0.072784	-0.021667	0.046844	-0.12924	0.043945	0.016174	-0.19363	-0.12955	0.040588	0.000763	-0.026398	-0.099487	-0.35141	-0.081329	0.041046	-0.043182	0.049438	-0.08255	0.005188	-0.009766	-0.012817	-0.001526	0.032349	0.17487	-0.003052	0.008392
58.767	0.001221	0.013123	0.09964	0.007019	0.009613	0.023041	0.103	-0.009613	-0.14175	-0.039063	0.087433	0.00824	-0.93094	0.042725	0.24994	0.002747	-0.02594	-0.11505	-0.1593	-0.08606	-0.003815	-0.059814	0.012665	0.002899	-0.001678	-0.001221	-0.003357	-0.002441	0.13458	0.10651	-0.005188	0.000305
58.768	0.002747	0.013428	0.042725	-0.001678	0.015106	0.028076	0.098724	-0.001984	-0.12192	-0.06073	0.25635	0.023956	-0.51148	-0.064392	0.44586	-0.006256	-0.016937	-0.19333	0.177	-0.074768	0.02594	-0.073853	-0.028839	-0.011139	0.014343	-0.010529	0.055389	-0.005798	0.097809	0.083923	-0.001678	-0.001068
58.769	0.006866	-0.037689	0.053101	-0.015106	0.011749	0.088348	0.075531	-0.003967	-0.063171	-0.13443	0.24796	0.016022	0.11597	0.036926	0.2034	0.020447	-0.026245	-0.14572	0.31174	-0.040131	0.11383	-0.070648	-0.12039	-0.034485	0.023804	-0.005798	0.11307	-0.001526	0.031891	0.015411	0	-0.004425
58.77	0.005646	-0.010529	0.028229	-0.022736	0.010529	0.13001	0.076904	0.003357	-0.046692	-0.15625	0.12817	-0.000458	0.1561	0.19608	0.83542	0.019379	0.016327	-0.13809	-0.003204	0.018616	-0.068207	-0.054016	-0.10788	-0.059509	-0.000916	-0.002899	0.090027	-0.001831	0.007324	-0.006714	-0.006256	-0.002594
58.771	0.000763	-0.011139	0.048218	0.033112	0.006256	0.20294	0.06546	0.007019	-0.045471	-0.13046	0.26367	-0.007782	0.345	0.19226	0.32989	-0.001373	0.006409	-0.13428	-0.38773	-0.023041	-0.1796	0.009766	-0.063477	-0.12253	-0.019684	-0.007019	0.062256	-0.000916	0.17059	-0.02243	-0.006256	-0.009308
58.772	-0.003815	-0.005341	-0.048218	0.009613	-0.007782	0.23789	0.040894	0.001526	-0.03067	-0.10864	-0.16022	-0.006256	0.48538	0.11826	-0.43381	-0.017242	0.001526	-0.13855	-0.61142	0.02655	-0.16235	0.023041	-0.051575	-0.12909	-0.005646	-0.00351	0.067444	-0.001526	0.24185	-0.040131	-0.002747	-0.010223
58.773	0.004272	0.005188	-0.07309	0.008698	-0.004883	0.2301	0.060425	0.010376	-0.041962	-0.078125	-0.19302	0.004883	-0.048523	0.073853	-1.1005	-0.025177	-0.03067	-0.07309	-0.70602	-0.028229	0.072021	-0.050812	-0.032806	-0.041656	0.004425	-0.002289	0.14755	0.001373	0.12878	-0.052948	-0.005798	-0.007935
58.774	0.005188	0.016022	0.016174	-0.002747	0.002899	0.03418	0.055542	0.007477	-0.030518	-0.084076	-0.078583	-0.00885	-0.1355	0.20325	-0.84167	-0.000458	-0.012817	-0.10498	-0.48599	-0.086212	0.023651	-0.094604	0.00412	-0.005798	0.003662	-0.003052	0.14771	0.000916	-0.047302	-0.052948	0.001831	-0.000305
58.775	0.006256	0.003815	0.066376	-0.002441	0.003967	-0.30731	0.041656	0.009155	-0.023193	-0.063782	0.019073	0.009155	-0.096741	0.17151	-0.66116	0.004272	-0.016937	-0.089569	-0.27771	-0.007172	-0.003052	-0.08667	-0.021362	-0.010376	-0.002136	-0.009766	0.26016	-0.002747	-0.1741	-0.084534	-0.00824	-0.001373
58.776	-0.005493	0.019379	0.054016	0.021515	0.004578	-0.24262	0.053406	0.01358	-0.026855	-0.013428	0.056152	-0.001831	0.024872	0.063782	-0.34302	0.01297	-0.010376	-0.045624	-0.1445	0.059357	-0.068054	-0.053406	-0.027008	0.016022	0.018616	-0.012665	0.2327	-0.001526	-0.28564	-0.097351	-0.00885	-0.007172
58.777	-0.010223	-0.01709	0.066681	0.024109	0.007782	-0.14801	0.039215	0.011597	-0.028534	-0.016937	-0.04425	0.001526	0.016479	-0.028534	-0.1474	0.000153	-0.015717	-0.10574	0.085907	0.085297	-0.12787	0.026855	0.014648	-0.005646	0.000458	-0.009918	0.063629	-0.00824	-0.17441	-0.103	-0.006866	-0.002441
58.778	-0.016632	0.018158	0.066833	0.004272	-0.034637	-0.069733	0.031281	0.018921	-0.028992	0.031433	-0.061493	0.000153	-0.20172	0.092316	0.29251	0.021057	-0.00885	-0.1239	0.18753	0.083008	-0.22873	0.017395	-0.005951	-0.009003	-0.001068	-0.001221	0.047913	-0.002289	-0.13382	-0.10391	-0.004272	-0.003204
58.779	-0.011292	-0.023041	0.029602	-0.00946	-0.087738	0.00885	0.036316	0.01358	-0.033875	0.055695	-0.063019	-0.007324	-0.37476	0.14984	0.40192	0.016632	-0.040741	-0.19638	0.22293	-0.00412	-0.20447	0.030212	-0.020599	0.046692	0.01709	-0.002136	0.077667	-0.002136	-0.089569	-0.081787	-0.004578	-0.010834
58.78	0.002441	-0.005493	0.007782	-0.012817	-0.079651	0.13367	0.039215	0.007477	0.005493	0.2623	-0.14893	-0.00824	-0.041809	-0.10971	0.22858	0.000153	-0.066986	-0.1648	-0.033417	-0.112	-0.18204	0.072174	-0.001068	-0.012512	0.00061	-0.00824	0.089111	-0.003052	-0.083008	-0.007019	-0.007172	-0.009155
